<?xml version="1.0" standalone="no"?>
<!DOCTYPE svg PUBLIC "-//W3C//DTD SVG 20010904//EN"
 "http://www.w3.org/TR/2001/REC-SVG-20010904/DTD/svg10.dtd">
<svg version="1.0" xmlns="http://www.w3.org/2000/svg"
 width="200.000000pt" height="200.000000pt" viewBox="0 0 200.000000 200.000000"
 preserveAspectRatio="xMidYMid meet">
<metadata>
Created by potrace 1.11, written by Peter Selinger 2001-2013
</metadata>
<g transform="translate(0.000000,200.000000) scale(0.100000,-0.100000)"
fill="#000000" stroke="none">
<path d="M575 1980 c-4 -12 -24 -28 -46 -37 -45 -18 -108 -85 -116 -125 -3
-15 -16 -34 -29 -43 -29 -19 -64 -85 -64 -120 0 -14 -10 -39 -22 -56 -28 -38
-30 -128 -4 -207 10 -28 15 -66 12 -84 -3 -18 -1 -37 4 -43 10 -12 10 -23 8
-147 -1 -70 1 -81 28 -121 16 -24 48 -74 72 -110 24 -35 51 -67 61 -70 11 -3
21 -22 29 -58 25 -112 102 -231 188 -292 38 -27 44 -36 44 -68 0 -32 -6 -41
-52 -76 -72 -54 -162 -87 -307 -113 -191 -34 -285 -79 -337 -162 -13 -21 -24
-40 -24 -43 0 -3 439 -5 975 -5 l976 0 -16 30 c-51 98 -173 165 -340 185 -16
3 -52 7 -78 11 -57 7 -189 67 -236 106 -32 28 -55 77 -42 94 3 5 31 30 62 56
90 75 145 169 174 297 5 18 15 36 24 38 9 2 30 25 46 51 16 26 46 70 66 97 52
71 57 98 46 230 -1 17 1 39 6 49 5 10 9 37 9 60 -1 23 6 66 15 96 24 83 22
159 -5 197 -12 17 -22 42 -22 55 -1 35 -34 102 -63 125 -14 11 -29 32 -32 46
-10 38 -71 104 -111 119 -19 6 -41 22 -49 35 l-15 23 -415 0 c-408 0 -414 0
-420 -20z"/>
</g>
</svg>
